<svg version="1" xmlns="http://www.w3.org/2000/svg" width="682.667" height="682.667" viewBox="0 0 512.000000 512.000000"><path d="M255.7 2.7c-.4.7-1.5 8.2-3.2 22.1-.2 1.8-.6 4.5-.9 6-.3 1.5-.8 4.9-1.1 7.7-.3 2.7-.8 6.6-1.1 8.5-.6 4.9-1.5 11.1-1.9 14-2 13.8-3.6 25.4-4 29.5-.3 2.7-.8 6.1-1 7.5-.8 4.4-1.4 8.3-2.5 17-.6 4.7-1.3 9.6-1.5 11-.5 3.6-2.3 16.7-3 22-.4 2.5-.8 5.6-1 7-1.2 8.1-1.5 11-2.1 15.5-1 9.5-.9 9.4-9.1.8-4.1-4.3-15.7-16.4-25.8-26.8-10-10.5-20.2-21.1-22.6-23.6-2.4-2.6-12.7-13.3-22.9-23.9-10.2-10.6-21.4-22.2-24.9-25.9C112.9 56.3 105.7 49 105.4 49c-.1 0 1.7 3.5 4 7.7 2.4 4.3 6.5 11.8 9.1 16.8 2.6 4.9 6 11.2 7.5 14 1.5 2.7 5.1 9.5 8 15 2.9 5.5 8.1 15.2 11.5 21.5 3.4 6.3 8.4 15.5 11 20.5 2.6 4.9 6 11.2 7.5 14 1.5 2.7 4.7 8.6 7 13 6.9 13 11.7 22 16 29.9l4 7.4-4.2-.9c-2.4-.4-9.9-1.8-16.8-3s-13.4-2.3-14.5-2.5c-1.1-.2-8.5-1.5-16.5-2.9-8-1.5-16.5-3-19-3.5s-6.1-1.2-8-1.4c-1.9-.3-9.6-1.7-17-3-7.4-1.4-15.1-2.8-17-3.1-1.9-.4-7.1-1.3-11.5-2.1s-14.1-2.5-21.5-3.9c-7.4-1.3-17.3-3.1-22-3.9-4.7-.9-8.9-1.6-9.5-1.6-1 0 2.1 1.6 33.8 16.9 9.2 4.5 24.2 11.8 33.5 16.2 9.2 4.5 22.1 10.7 28.7 13.9 6.6 3.2 21.5 10.4 33 16 11.6 5.6 23 11.1 25.5 12.3 8.7 4 11.2 2.1-26.5 20.2-6 2.9-19.1 9.2-29 14-9.9 4.8-23.4 11.3-30 14.5-6.6 3.2-21.2 10.3-32.5 15.7-11.3 5.5-24 11.7-28.2 13.7-8.2 3.9-9.7 5.2-5 4.2 3.2-.8 4.8-1.1 22.2-4.1 17.6-3.1 35.9-6.4 39-7 1.4-.2 3.6-.7 5-1 1.4-.2 4.1-.7 6-1 1.9-.3 10.9-1.9 20-3.5s17.9-3.2 19.5-3.5c1.7-.3 3.9-.7 5-.9 2.9-.6 18.5-3.4 22-4 1.7-.3 6.8-1.2 11.5-2.1 4.7-.8 10.1-1.8 12-2.1 4.2-.6 7.8-1.3 10.4-2 1.4-.5.7 1.5-3.4 9.2-2.9 5.5-6 11.2-7 12.9-1 1.6-4 7.3-6.7 12.5-2.8 5.2-11.3 21.2-19 35.5-7.7 14.3-16.4 30.5-19.3 36-8 15.1-11.5 21.5-14.2 26.5-5.4 9.7-13.8 25.9-13.8 26.4 0 .3 3.1-2.7 6.9-6.7 3.8-3.9 9.9-10.4 13.6-14.2 3.7-3.9 15.1-15.8 25.4-26.5 10.4-10.7 21-21.8 23.7-24.6 2.7-2.9 13-13.6 22.9-23.9 9.9-10.3 21.3-22.2 25.2-26.4 4-4.2 7.3-7.2 7.4-6.6 0 .5.2 1.7.4 2.5.3 1.8 1.3 8.2 2 14.2.3 2.4.8 5.4 1 6.8.2 1.4.7 4.5 1 7 .4 2.5.8 5.6 1 7 .2 1.4.9 6.3 1.5 11s1.3 9.6 1.5 11c.2 1.4.6 4.3.9 6.5.3 2.2 1.1 7.4 1.7 11.5.5 4.1 1.2 8.8 1.4 10.5.1 1.6.8 6.8 1.5 11.5.6 4.7 1.3 9.8 1.5 11.5.2 1.6.9 6.6 1.6 10.9.6 4.4 1.3 9.2 1.4 10.8.2 1.6.9 6.5 1.6 11.1.6 4.5 1.2 9.1 1.4 10.2.8 6.3 1.9 14.1 2.1 14.7.1.5.2 2.5.3 4.5.2 5.3 1.8 2.9 2.5-3.8.4-3.1.8-6.5 1-7.5.2-1.1.7-4.6 1.1-7.9.4-3.2.8-6.7 1-7.6.2-.9.6-4 1-6.9.4-2.9.8-6 1-6.9.1-.9.6-4.1.9-7.2.4-3.1.9-6.7 1.1-8 .3-1.3.7-4.2.9-6.4.3-2.2.9-7.2 1.5-11 1.8-12.3 5.5-39.3 6.6-49 .4-2.8.8-5.7 1-6.5.2-.8.7-4 1-7 .3-3 1-8 1.5-11 .9-5.2 1.1-7.2 2.5-18 .3-2.5.8-5.4 1-6.5.2-1.1.4-2.2.4-2.5.1-.3 3.3 2.9 7.2 7 3.9 4.1 14.9 15.6 24.4 25.5 9.5 9.9 20.2 21 23.7 24.7 3.4 3.6 14.9 15.5 25.3 26.3 10.5 10.9 21 21.8 23.4 24.4 13.9 14.8 24.6 25.3 21.5 21.1-1.1-1.5-4-6.8-12.6-23-2.5-4.7-9.6-17.9-15.8-29.5-6.2-11.6-13.1-24.4-15.3-28.5-2.2-4.1-5-9.4-6.3-11.8-1.3-2.3-5.1-9.5-8.5-16-3.4-6.4-7-13.1-7.9-14.7-1-1.7-3.6-6.4-5.8-10.5-2.1-4.1-6.1-11.5-8.7-16.3-3.7-7-4.3-8.8-2.8-8.3 2 .6 2.1.6 19.8 3.6l22 4c11.1 2.1 13.3 2.5 22 4 3.3.5 6.9 1.2 8 1.4 1.1.2 4 .7 6.5 1.2 2.5.4 4.7.8 5 .9 3.8.8 8.3 1.6 11.5 2 2.2.4 4.7.8 5.5 1 1.5.4 6.9 1.4 10.5 2 1.1.1 7.4 1.2 14 2.4 12.6 2.3 30.6 5.5 36.5 6.5 1.9.4 5.9 1.1 8.8 1.7 3 .6 5.5.9 5.8.7.2-.3-3.3-2.2-7.9-4.3-7.6-3.5-14.4-6.8-59.2-28.5-8.8-4.3-23-11.1-31.5-15.3-8.5-4.1-24.7-11.9-36-17.4-11.3-5.5-22-10.6-23.7-11.4-1.8-.7-3.3-1.6-3.3-1.9 0-.3 1.5-1.2 3.3-1.9 1.7-.8 12.9-6.2 24.7-11.9 32.7-15.9 51.1-24.8 66.5-32.2 7.7-3.7 23.9-11.6 35.9-17.4 12-5.9 24.1-11.6 26.8-12.8 2.7-1.1 4.7-2.2 4.5-2.4-.3-.3-10.7 1.3-19.2 3-1.1.2-4 .7-6.5 1.1-2.5.4-5.4.9-6.5 1.1-2.4.5-28.7 5.2-33 5.9-1.6.3-9.3 1.7-17 3.1-7.7 1.5-15.1 2.8-16.5 3-8.6 1.5-14.8 2.6-17 3-4.1.7-30.3 5.5-33 6-1.4.2-3.8.7-5.5.9-1.6.3-7.6 1.4-13.2 2.4l-10.3 1.8 4.7-8.6c2.5-4.7 6-11.3 7.8-14.6 3.4-6.4 8.9-16.6 15.6-29.3 2.3-4.2 5.4-10 6.9-12.7 1.5-2.8 4.8-8.8 7.3-13.5 6.4-12.2 11.1-20.9 18.2-34 3.4-6.3 8.6-16 11.5-21.5 2.9-5.5 7-13.2 9.1-17.1 2.2-3.9 3.9-7.4 3.9-7.7 0-.6-5.9 5.4-20.6 21-2.7 2.8-13.3 13.8-23.6 24.5-10.2 10.6-21 21.8-24 24.9-2.9 3-13.9 14.5-24.4 25.5-10.5 10.9-22.1 23-25.7 26.7-7.2 7.6-7 7.6-8.2-1.8-1-7.8-1.5-11.7-2.1-15.5-.3-1.9-.7-5.1-.9-7-.2-1.9-.6-4.9-.9-6.5-.2-1.7-.8-5.5-1.1-8.5-.4-3-.9-6.4-1.1-7.5-.3-1.1-.6-4-.9-6.5-.3-2.5-.7-5.4-.9-6.5-.2-1.1-.7-4.9-1.1-8.5-.4-3.6-.8-6.7-1-7-.2-.3-.6-3.4-1-7s-.9-7.2-1-8.1c-.2-.9-.6-4-1-6.9-.4-2.9-.9-6.2-1.1-7.4-.2-1.2-.6-4.1-.9-6.6-.3-2.5-.7-5.6-1-7-.2-1.4-.7-4.8-1-7.5-.6-5.2-2.3-17.1-3-21.5-.2-1.4-.6-4.8-1-7.5-.3-2.8-.9-6.6-1.2-8.5-.3-1.9-.6-4.3-.5-5.3.1-1.8-.4-2.2-1.1-1z"/></svg>